<svg xmlns="http://www.w3.org/2000/svg" xmlns:svg="http://www.w3.org/2000/svg" id="Layer_1" width="24" height="24" data-name="Layer 1" version="1.1" viewBox="0 0 24 24"><metadata id="metadata25"/><title id="title2">Pop_icon</title><g id="g18" transform="matrix(0.19379845,0,0,0.19379845,-67.933333,-91.593799)" style="stroke-width:3.78399992"><g id="g918" transform="matrix(0.12,0,0,0.12,355.696,477.664)"><circle style="fill:#48b9c7;stroke-width:3.78399992" id="circle4" cx="473" cy="474" r="473"/><g id="g908"><rect id="rect6" width="516" height="86" x="215" y="732" rx="43" ry="43" style="fill:#fff;stroke-width:3.78399992"/><g id="g900" transform="matrix(1.05,0,0,1.05,-23.302778,-20.13225)"><path id="path10" d="m 512.96432,349.32144 c -24,51 -64,92 -120,112 l 48,125 c 9,23 17,47 10,69 -7,22 -39,29 -62,5 -44,-47 -192,-343 -203,-365 -11,-22 -23,-40 -23,-62 1,-33 52,-67 77,-84 25,-17 74,-40 117,-41 43,-1 61,9 86,25 38,25 65,64 75,109 10,45 7,80 -5,105 m -113,-54 c -9,-31 -28,-61 -53,-81 -5,-4 -11,-9 -18,-11 -46,-15 -26,62 -19,82 7,20 26,62 47,83 5,5 10,9 16,10 6,1 18,-5 23,-13 5,-8 6,-14 6,-22 a 128,128 0 0 0 -2,-48 z" style="fill:#fff;stroke-width:14.31865597"/><g id="g894" transform="translate(19.196429,-20.476191)"><path id="path12" d="m 631.76957,666.49935 c -2.43102,10.93956 -8.50855,20.66361 -18.2326,26.74114 -9.72405,6.07753 -32.81867,6.07753 -46.18924,-4.86202 -13.37056,-10.93956 -15.80158,-29.17215 -12.15506,-43.75823 3.64652,-14.58607 15.80158,-30.38766 32.81867,-35.24968 35.24968,-10.93956 51.05126,27.95664 43.75823,57.12879 z" style="fill:#fff;stroke-width:4.59947538"/><path id="path14" d="m 607,573 c -18,-7 -12,-103 5,-220 5,-32 13,-48 22,-56 9,-8 36,-12 52,-9 a 90,90 0 0 1 49,24 c 12,11 13,23 9,38 -4,15 -18,47 -29,70 l -28,53 c -54,96 -65,106 -80,100 z" style="fill:#fff;stroke-width:3.78399992"/></g></g></g></g></g></svg>